{
  "accessors": [
    {
      "bufferView": 2,
      "componentType": 5126,
      "count": 9153,
      "max": [
        3.4532680511474609,
        1.6786750555038452,
        0.66005998849868774
      ],
      "min": [
        -4.7384462356567383,
        -1.0732009410858154,
        -1.651231050491333
      ],
      "type": "VEC3"
    },
    {
      "bufferView": 2,
      "byteOffset": 109836,
      "componentType": 5126,
      "count": 9153,
      "max": [
        0.99995136260986328,
        0.99999964237213135,
        0.99998313188552856
      ],
      "min": [
        -0.99999940395355225,
        -0.99998337030410767,
        -0.99999350309371948
      ],
      "type": "VEC3"
    },
    {
      "bufferView": 3,
      "componentType": 5126,
      "count": 9153,
      "max": [
        0.99999994039535522,
        0.99999988079071045,
        1,
        1
      ],
      "min": [
        -0.98471242189407349,
        -0.99999970197677612,
        -0.99999982118606567,
        1
      ],
      "type": "VEC4"
    },
    {
      "bufferView": 1,
      "componentType": 5126,
      "count": 9153,
      "max": [
        3.0875129699707031,
        2.9960289001464844
      ],
      "min": [
        -2.0875139236450195,
        -2.0256600379943848
      ],
      "type": "VEC2"
    },
    {
      "bufferView": 0,
      "componentType": 5125,
      "count": 42120,
      "max": [
        9152
      ],
      "min": [
        0
      ],
      "type": "SCALAR"
    },
    {
      "bufferView": 2,
      "byteOffset": 219672,
      "componentType": 5126,
      "count": 5672,
      "max": [
        3.5591330528259277,
        1.6664309501647949,
        0.50271099805831909
      ],
      "min": [
        -4.8443112373352051,
        -1.2676730155944824,
        -1.656046986579895
      ],
      "type": "VEC3"
    },
    {
      "bufferView": 2,
      "byteOffset": 287736,
      "componentType": 5126,
      "count": 5672,
      "max": [
        1,
        1,
        1
      ],
      "min": [
        -1,
        -1,
        -1
      ],
      "type": "VEC3"
    },
    {
      "bufferView": 3,
      "byteOffset": 146448,
      "componentType": 5126,
      "count": 5672,
      "max": [
        0.99997639656066895,
        1,
        1,
        1
      ],
      "min": [
        -0.99877238273620605,
        -1,
        -1,
        1
      ],
      "type": "VEC4"
    },
    {
      "bufferView": 1,
      "byteOffset": 73224,
      "componentType": 5126,
      "count": 5672,
      "max": [
        3.0875139236450195,
        2.4039349555969238
      ],
      "min": [
        -1.5801899433135986,
        -2.0256600379943848
      ],
      "type": "VEC2"
    },
    {
      "bufferView": 0,
      "byteOffset": 168480,
      "componentType": 5125,
      "count": 29772,
      "max": [
        5671
      ],
      "min": [
        0
      ],
      "type": "SCALAR"
    },
    {
      "bufferView": 2,
      "byteOffset": 355800,
      "componentType": 5126,
      "count": 168,
      "max": [
        3.5561070442199707,
        1.6625750064849854,
        -1.6311049461364746
      ],
      "min": [
        -4.8496160507202148,
        -1.2402060031890869,
        -2.9864189624786377
      ],
      "type": "VEC3"
    },
    {
      "bufferView": 2,
      "byteOffset": 357816,
      "componentType": 5126,
      "count": 168,
      "max": [
        1,
        1,
        1
      ],
      "min": [
        -1,
        -1,
        -1
      ],
      "type": "VEC3"
    },
    {
      "bufferView": 3,
      "byteOffset": 237200,
      "componentType": 5126,
      "count": 168,
      "max": [
        1,
        1,
        1,
        1
      ],
      "min": [
        -0.00019162340322509408,
        -1,
        -1,
        1
      ],
      "type": "VEC4"
    },
    {
      "bufferView": 1,
      "byteOffset": 118600,
      "componentType": 5126,
      "count": 168,
      "max": [
        0.91122299432754517,
        0.99800801277160645
      ],
      "min": [
        0.0018189999973401427,
        0.0019920000340789557
      ],
      "type": "VEC2"
    },
    {
      "bufferView": 0,
      "byteOffset": 287568,
      "componentType": 5125,
      "count": 324,
      "max": [
        167
      ],
      "min": [
        0
      ],
      "type": "SCALAR"
    }
  ],
  "asset": {
    "extras": {
      "author": "Junaid_shakoor (https://sketchfab.com/Junaid_shakoor)",
      "license": "CC-BY-4.0 (http://creativecommons.org/licenses/by/4.0/)",
      "source": "https://sketchfab.com/3d-models/sofa-model-a266128f9ab84ef2967284e4eab48199",
      "title": "Sofa Model"
    },
    "generator": "Sketchfab-4.47.0",
    "version": "2.0"
  },
  "bufferViews": [
    {
      "buffer": 0,
      "byteLength": 288864,
      "byteOffset": 0,
      "name": "floatBufferViews",
      "target": 34963
    },
    {
      "buffer": 0,
      "byteLength": 119944,
      "byteOffset": 288864,
      "byteStride": 8,
      "name": "floatBufferViews",
      "target": 34962
    },
    {
      "buffer": 0,
      "byteLength": 359832,
      "byteOffset": 408808,
      "byteStride": 12,
      "name": "floatBufferViews",
      "target": 34962
    },
    {
      "buffer": 0,
      "byteLength": 239888,
      "byteOffset": 768640,
      "byteStride": 16,
      "name": "floatBufferViews",
      "target": 34962
    }
  ],
  "buffers": [
    {
      "byteLength": 1008528,
      "uri": "scene.bin"
    }
  ],
  "images": [
    {
      "uri": "textures/aiStandardSurface1SG_baseColor.png"
    },
    {
      "uri": "textures/lambert3SG_baseColor.png"
    }
  ],
  "materials": [
    {
      "doubleSided": true,
      "name": "aiStandardSurface1SG",
      "pbrMetallicRoughness": {
        "baseColorFactor": [
          1,
          1,
          1,
          1
        ],
        "baseColorTexture": {
          "index": 0,
          "texCoord": 0
        },
        "metallicFactor": 0,
        "roughnessFactor": 0.59999999999999998
      }
    },
    {
      "doubleSided": true,
      "name": "lambert3SG",
      "pbrMetallicRoughness": {
        "baseColorFactor": [
          1,
          1,
          1,
          1
        ],
        "baseColorTexture": {
          "index": 1,
          "texCoord": 0
        },
        "metallicFactor": 0,
        "roughnessFactor": 0.59999999999999998
      }
    }
  ],
  "meshes": [
    {
      "primitives": [
        {
          "attributes": {
            "NORMAL": 1,
            "POSITION": 0,
            "TANGENT": 2,
            "TEXCOORD_0": 3
          },
          "indices": 4,
          "material": 0,
          "mode": 4
        }
      ]
    },
    {
      "primitives": [
        {
          "attributes": {
            "NORMAL": 6,
            "POSITION": 5,
            "TANGENT": 7,
            "TEXCOORD_0": 8
          },
          "indices": 9,
          "material": 0,
          "mode": 4
        }
      ]
    },
    {
      "primitives": [
        {
          "attributes": {
            "NORMAL": 11,
            "POSITION": 10,
            "TANGENT": 12,
            "TEXCOORD_0": 13
          },
          "indices": 14,
          "material": 1,
          "mode": 4
        }
      ]
    }
  ],
  "nodes": [
    {
      "children": [
        1
      ],
      "name": "RootNode (gltf orientation matrix)",
      "rotation": [
        -0.70710678118654746,
        -0,
        -0,
        0.70710678118654757
      ]
    },
    {
      "children": [
        2
      ],
      "name": "RootNode (model correction matrix)"
    },
    {
      "children": [
        3,
        4,
        5
      ],
      "name": "SofaModel.obj.cleaner.materialmerger.gles"
    },
    {
      "mesh": 0,
      "name": ""
    },
    {
      "mesh": 1,
      "name": ""
    },
    {
      "mesh": 2,
      "name": ""
    }
  ],
  "samplers": [
    {
      "magFilter": 9729,
      "minFilter": 9987,
      "wrapS": 10497,
      "wrapT": 10497
    }
  ],
  "scene": 0,
  "scenes": [
    {
      "name": "OSG_Scene",
      "nodes": [
        0
      ]
    }
  ],
  "textures": [
    {
      "sampler": 0,
      "source": 0
    },
    {
      "sampler": 0,
      "source": 1
    }
  ]
}

